<?xml version="1.0" standalone="no"?>
<!DOCTYPE svg PUBLIC "-//W3C//DTD SVG 20010904//EN"
 "http://www.w3.org/TR/2001/REC-SVG-20010904/DTD/svg10.dtd">
<svg version="1.0" xmlns="http://www.w3.org/2000/svg"
 width="538.000000pt" height="780.000000pt" viewBox="0 0 538.000000 780.000000"
 preserveAspectRatio="xMidYMid meet">
<metadata>
Created by potrace 1.16, written by Peter Selinger 2001-2019
</metadata>
<g transform="translate(0.000000,780.000000) scale(0.100000,-0.100000)"
fill="#000000" stroke="none">
<path d="M3000 6450 l0 -1330 -75 0 c-58 0 -75 3 -75 14 0 29 -229 104 -416
136 -135 24 -391 33 -519 19 -295 -33 -552 -127 -800 -293 -91 -61 -155 -115
-261 -221 -146 -146 -211 -225 -288 -355 -111 -188 -173 -347 -217 -560 -22
-103 -24 -140 -24 -360 1 -214 4 -259 23 -355 99 -480 385 -888 821 -1170 492
-318 1216 -351 1747 -79 199 102 342 211 514 391 238 249 390 546 456 888 20
102 20 124 24 1415 2 448 6 797 10 775 5 -25 6 -14 2 30 -2 39 -6 171 -8 295
-2 124 -7 306 -10 406 -5 115 -3 183 3 187 10 6 119 -21 358 -91 77 -22 187
-53 245 -67 118 -30 189 -57 240 -93 46 -32 168 -160 176 -184 3 -10 9 -18 13
-18 21 0 68 -134 92 -262 6 -32 14 -58 19 -58 9 0 23 48 16 58 -3 5 -10 48
-16 98 -18 151 -32 216 -60 284 -15 36 -25 71 -23 78 3 6 0 12 -5 12 -6 0 -25
25 -42 55 -51 89 -153 208 -247 287 -103 88 -332 261 -453 343 -345 235 -406
288 -942 806 -141 137 -261 249 -267 249 -8 0 -11 -381 -11 -1330z m-682
-1875 c176 -37 341 -122 475 -245 l57 -52 0 -331 0 -332 -102 -102 -103 -103
53 -53 53 -52 124 130 124 130 1 248 c0 136 4 247 9 247 14 0 78 -150 103
-241 19 -73 22 -108 22 -264 0 -157 -3 -191 -23 -265 -76 -281 -276 -526 -542
-665 -263 -136 -600 -148 -880 -30 -220 92 -415 278 -525 500 -85 172 -98 233
-98 460 0 217 13 285 83 432 59 123 103 186 204 290 177 183 370 281 617 313
84 11 262 4 348 -15z"/>
<path d="M2029 3827 c-53 -15 -94 -43 -139 -94 -46 -51 -62 -97 -62 -173 -1
-163 114 -280 277 -280 116 0 218 66 263 169 23 54 21 166 -4 222 -58 125
-203 193 -335 156z"/>
<path d="M2540 3305 c-47 -47 -60 -55 -92 -55 -21 0 -38 -3 -38 -7 0 -5 35
-44 77 -88 l77 -79 8 39 c6 29 24 55 63 95 30 31 55 59 55 63 0 12 -72 87 -84
87 -6 0 -36 -25 -66 -55z"/>
<path d="M1810 1480 c0 -11 -9 -37 -20 -57 -11 -21 -20 -45 -20 -53 0 -9 -7
-25 -14 -36 -8 -12 -20 -42 -27 -67 -6 -26 -15 -47 -19 -47 -4 0 -10 -12 -13
-27 -3 -16 -11 -41 -18 -58 -7 -16 -13 -33 -13 -37 -1 -3 -4 -10 -8 -14 -5 -4
-8 -15 -8 -25 0 -10 -11 -42 -24 -71 -13 -29 -29 -69 -34 -88 -17 -57 -43
-124 -52 -135 -5 -6 -14 -32 -20 -58 -7 -26 -16 -47 -20 -47 -4 0 -10 -13 -13
-30 -4 -16 -16 -50 -27 -74 -11 -25 -20 -51 -20 -58 0 -7 -6 -25 -14 -39 -7
-15 -22 -51 -31 -80 -10 -30 -20 -58 -24 -64 -3 -5 -15 -38 -26 -72 l-22 -63
229 0 c139 0 227 4 223 9 -3 5 -1 12 4 15 5 3 12 29 16 56 4 28 11 48 15 45 5
-3 12 15 15 40 l7 45 213 0 213 0 12 -52 c7 -29 16 -57 20 -63 9 -11 25 -76
22 -87 -1 -5 101 -8 227 -8 194 0 230 2 235 15 3 8 2 15 -3 15 -5 0 -12 16
-15 35 -4 19 -11 35 -16 35 -5 0 -7 9 -5 20 2 11 0 20 -4 20 -6 0 -17 27 -36
90 -2 6 -9 22 -41 102 -13 32 -24 62 -24 67 0 5 -5 22 -12 38 -6 15 -12 30
-13 33 -1 3 -7 18 -13 33 -7 16 -12 33 -12 39 0 5 -6 22 -14 36 -14 26 -40 92
-41 102 0 3 -6 14 -11 25 -13 23 -28 76 -26 88 1 4 -2 7 -7 7 -5 0 -15 25 -22
55 -7 30 -15 55 -19 55 -6 0 -30 67 -31 87 0 5 -4 13 -9 18 -15 18 -48 123
-42 131 4 4 2 4 -4 1 -8 -4 -14 7 -19 31 -4 20 -11 42 -15 47 -5 6 -8 12 -8
15 -1 16 -25 66 -35 72 -7 4 -114 8 -239 8 -222 0 -228 -1 -228 -20z m270
-510 c12 -41 28 -89 35 -105 7 -17 18 -57 26 -90 7 -33 18 -63 23 -67 6 -4
-44 -8 -111 -8 -76 0 -123 4 -123 10 0 6 4 10 8 10 5 0 14 28 20 62 6 34 17
65 23 69 7 4 9 14 6 22 -3 8 -3 18 1 21 3 4 8 14 10 24 4 20 10 54 11 65 1 5
5 6 10 2 6 -3 10 3 10 12 1 10 4 36 7 58 8 45 3 54 44 -85z"/>
<path d="M2860 840 l0 -660 220 0 220 0 0 235 0 235 133 1 c147 2 156 3 177
11 8 4 38 9 65 12 46 6 156 52 163 69 2 4 10 7 18 7 8 0 14 3 14 8 0 4 21 29
45 56 31 34 47 62 51 88 4 22 11 35 17 31 6 -4 8 2 5 15 -4 12 -2 25 3 28 5 3
9 48 9 99 0 97 -12 152 -53 234 -24 49 -109 129 -147 138 -14 3 -35 11 -46 19
-41 25 -188 34 -541 34 l-353 0 0 -660z m600 360 c0 -5 10 -10 23 -10 44 -1
87 -58 87 -117 0 -42 -29 -90 -65 -107 -22 -11 -62 -16 -122 -16 l-88 0 3 130
3 130 80 0 c46 0 79 -4 79 -10z"/>
<path d="M452 1480 c-122 -3 -223 -9 -223 -13 -1 -4 2 -18 6 -30 4 -12 6 -26
5 -32 -1 -5 1 -7 5 -3 7 7 153 -199 191 -271 12 -22 24 -38 27 -34 3 3 9 -6
13 -21 3 -14 10 -26 15 -26 5 0 17 -17 27 -37 9 -21 22 -42 28 -48 6 -5 47
-64 90 -130 l79 -120 5 -275 5 -275 207 -3 207 -2 6 32 c3 18 5 142 3 276 -2
133 -1 242 2 242 3 0 11 14 18 30 8 17 17 28 21 26 4 -3 13 11 20 30 7 18 16
34 20 34 5 0 14 14 21 30 7 17 16 30 20 30 4 0 13 13 20 30 7 16 16 27 21 24
5 -3 9 -2 8 3 -3 12 23 63 32 63 4 0 10 8 13 18 4 10 14 27 25 38 10 11 24 32
32 46 32 59 137 207 143 201 3 -3 6 1 6 9 0 9 16 39 35 67 19 28 35 61 35 73
l0 23 -227 -2 c-179 -1 -228 -4 -232 -15 -2 -7 -7 -15 -10 -18 -4 -3 -40 -61
-80 -130 -40 -69 -82 -137 -92 -152 -10 -15 -19 -31 -19 -36 0 -4 -10 -22 -23
-40 l-24 -31 -17 32 c-9 18 -28 50 -41 72 -14 22 -32 55 -42 73 -9 17 -20 32
-24 32 -4 0 -13 16 -19 35 -6 19 -15 35 -20 35 -5 0 -14 16 -21 35 -7 19 -16
35 -20 35 -4 0 -12 13 -19 30 -7 16 -17 33 -24 37 -6 4 -111 6 -234 3z"/>
</g>
</svg>
